<mxfile host="app.diagrams.net" agent="Mozilla/5.0 (Windows NT 10.0; Win64; x64) AppleWebKit/537.36 (KHTML, like Gecko) Chrome/141.0.0.0 Safari/537.36" version="28.2.7">
  <diagram name="Page-1" id="XAiOhrwSmUIghEO-j1fR">
    <mxGraphModel dx="931" dy="958" grid="1" gridSize="10" guides="1" tooltips="1" connect="1" arrows="1" fold="1" page="1" pageScale="1" pageWidth="850" pageHeight="1100" math="0" shadow="0">
      <root>
        <mxCell id="0" />
        <mxCell id="1" parent="0" />
        <mxCell id="vnGg5VII7t6sRIZrtGt4-2" style="edgeStyle=orthogonalEdgeStyle;rounded=0;orthogonalLoop=1;jettySize=auto;html=1;exitX=0.5;exitY=0.5;exitDx=0;exitDy=0;exitPerimeter=0;shape=link;" edge="1" parent="1" source="vnGg5VII7t6sRIZrtGt4-1">
          <mxGeometry relative="1" as="geometry">
            <mxPoint x="210" y="730" as="targetPoint" />
          </mxGeometry>
        </mxCell>
        <mxCell id="vnGg5VII7t6sRIZrtGt4-1" value="SISTEMA DE ARQUIVOS" style="shape=umlActor;verticalLabelPosition=bottom;verticalAlign=top;html=1;outlineConnect=0;" vertex="1" parent="1">
          <mxGeometry x="410" y="800" width="30" height="60" as="geometry" />
        </mxCell>
        <mxCell id="vnGg5VII7t6sRIZrtGt4-3" style="edgeStyle=orthogonalEdgeStyle;rounded=0;orthogonalLoop=1;jettySize=auto;html=1;exitX=0.25;exitY=0.1;exitDx=0;exitDy=0;exitPerimeter=0;entryX=0.75;entryY=0.1;entryDx=0;entryDy=0;entryPerimeter=0;" edge="1" parent="1" source="vnGg5VII7t6sRIZrtGt4-1" target="vnGg5VII7t6sRIZrtGt4-1">
          <mxGeometry relative="1" as="geometry" />
        </mxCell>
        <mxCell id="vnGg5VII7t6sRIZrtGt4-6" style="edgeStyle=orthogonalEdgeStyle;rounded=0;orthogonalLoop=1;jettySize=auto;html=1;exitX=0.5;exitY=0;exitDx=0;exitDy=0;shape=link;strokeColor=#00CC66;" edge="1" parent="1" source="vnGg5VII7t6sRIZrtGt4-5">
          <mxGeometry relative="1" as="geometry">
            <mxPoint x="210" y="350" as="targetPoint" />
          </mxGeometry>
        </mxCell>
        <mxCell id="vnGg5VII7t6sRIZrtGt4-9" value="AWS CLI TRANSFER FILE" style="edgeLabel;html=1;align=center;verticalAlign=middle;resizable=0;points=[];" vertex="1" connectable="0" parent="vnGg5VII7t6sRIZrtGt4-6">
          <mxGeometry x="0.2942" y="5" relative="1" as="geometry">
            <mxPoint y="1" as="offset" />
          </mxGeometry>
        </mxCell>
        <mxCell id="vnGg5VII7t6sRIZrtGt4-5" value="ARQUIVO" style="shape=document;whiteSpace=wrap;html=1;boundedLbl=1;" vertex="1" parent="1">
          <mxGeometry x="150" y="670" width="120" height="70" as="geometry" />
        </mxCell>
        <mxCell id="vnGg5VII7t6sRIZrtGt4-10" style="edgeStyle=orthogonalEdgeStyle;rounded=0;orthogonalLoop=1;jettySize=auto;html=1;shape=link;" edge="1" parent="1" source="vnGg5VII7t6sRIZrtGt4-8">
          <mxGeometry relative="1" as="geometry">
            <mxPoint x="440" y="276.5000000000002" as="targetPoint" />
          </mxGeometry>
        </mxCell>
        <mxCell id="vnGg5VII7t6sRIZrtGt4-12" value="TRIGGER" style="edgeLabel;html=1;align=center;verticalAlign=middle;resizable=0;points=[];" vertex="1" connectable="0" parent="vnGg5VII7t6sRIZrtGt4-10">
          <mxGeometry x="0.0205" y="-2" relative="1" as="geometry">
            <mxPoint as="offset" />
          </mxGeometry>
        </mxCell>
        <mxCell id="vnGg5VII7t6sRIZrtGt4-8" value="S3" style="outlineConnect=0;dashed=0;verticalLabelPosition=bottom;verticalAlign=top;align=center;html=1;shape=mxgraph.aws3.s3;fillColor=#E05243;gradientColor=none;" vertex="1" parent="1">
          <mxGeometry x="171.75" y="230" width="76.5" height="93" as="geometry" />
        </mxCell>
        <mxCell id="vnGg5VII7t6sRIZrtGt4-11" value="LAMBDA&amp;nbsp;&lt;br&gt;NODE JS&lt;div&gt;NET CORE&lt;/div&gt;&lt;div&gt;PYTHON&lt;/div&gt;" style="outlineConnect=0;dashed=0;verticalLabelPosition=bottom;verticalAlign=top;align=center;html=1;shape=mxgraph.aws3.lambda;fillColor=#F58534;gradientColor=none;" vertex="1" parent="1">
          <mxGeometry x="440" y="230" width="76.5" height="93" as="geometry" />
        </mxCell>
        <mxCell id="vnGg5VII7t6sRIZrtGt4-13" value="DYNAMO" style="outlineConnect=0;dashed=0;verticalLabelPosition=bottom;verticalAlign=top;align=center;html=1;shape=mxgraph.aws3.dynamo_db;fillColor=#2E73B8;gradientColor=none;" vertex="1" parent="1">
          <mxGeometry x="650" y="243" width="72" height="81" as="geometry" />
        </mxCell>
        <mxCell id="vnGg5VII7t6sRIZrtGt4-14" style="edgeStyle=orthogonalEdgeStyle;rounded=0;orthogonalLoop=1;jettySize=auto;html=1;exitX=1;exitY=0.5;exitDx=0;exitDy=0;exitPerimeter=0;entryX=0;entryY=0.5;entryDx=0;entryDy=0;entryPerimeter=0;shape=link;fillColor=#3333FF;" edge="1" parent="1" source="vnGg5VII7t6sRIZrtGt4-11" target="vnGg5VII7t6sRIZrtGt4-13">
          <mxGeometry relative="1" as="geometry" />
        </mxCell>
        <mxCell id="vnGg5VII7t6sRIZrtGt4-15" value="DB" style="edgeLabel;html=1;align=center;verticalAlign=middle;resizable=0;points=[];" vertex="1" connectable="0" parent="vnGg5VII7t6sRIZrtGt4-14">
          <mxGeometry x="-0.0917" y="4" relative="1" as="geometry">
            <mxPoint as="offset" />
          </mxGeometry>
        </mxCell>
      </root>
    </mxGraphModel>
  </diagram>
</mxfile>
